# xmcd
#
# Track frame offsets: 
#        150
#        15209
#        71595
#        96449
#        130382
#        145334
#        171395
#        203055
#        260623
#        264113
#        298224
#
# Disc length: 4361 seconds
#
# Revision: 1
# Processed by: cddbd v1.5.2PL0 Copyright (c) Steve Scherf et al.
# Submitted via: ExactAudioCopy v0.99pb5
#
DISCID=a611070b
DTITLE=Collectif Slang - Slanguistics
DYEAR=2000
DGENRE=Jazz
TTITLE0=Cutting contest
TTITLE1=Lux hotel
TTITLE2=Basic indien (dans de l'eau)
TTITLE3=Let's sink
TTITLE4=Walkin' on the eggs
TTITLE5=Hey! Nick ....super
TTITLE6=Slang collector
TTITLE7=Périf', fais moi peur
TTITLE8=Payes ta flûte #
TTITLE9=Tri-zoo-en-3-parties
TTITLE10=The flying drum
EXTD=YEAR: 2000
EXTT0=
EXTT1=
EXTT2=
EXTT3=
EXTT4=
EXTT5=
EXTT6=
EXTT7=
EXTT8=
EXTT9=
EXTT10=
PLAYORDER=
